<svg width="22" height="23" viewBox="0 0 22 23" fill="none" xmlns="http://www.w3.org/2000/svg">
<path fill-rule="evenodd" clip-rule="evenodd" d="M11.6965 14.5052V6.62314H10.3031V14.4955L7.62237 11.38L6.56622 12.2856L11.0012 17.4438L15.4529 12.2884L14.3968 11.3786L11.6965 14.5052ZM10.9998 1.0498C5.22862 1.0498 0.549805 5.72862 0.549805 11.4998C0.549805 17.271 5.22862 21.9498 10.9998 21.9498C16.771 21.9498 21.4498 17.271 21.4498 11.4998C21.4498 5.72862 16.771 1.0498 10.9998 1.0498ZM10.9998 20.5565C6.0061 20.5565 1.94314 16.4935 1.94314 11.4998C1.94314 6.5061 6.0061 2.44314 10.9998 2.44314C15.9935 2.44314 20.0565 6.5061 20.0565 11.4998C20.0565 16.4935 15.9935 20.5565 10.9998 20.5565Z" fill="white"/>
</svg>
