<svg width="38" height="39" viewBox="0 0 38 39" fill="none" xmlns="http://www.w3.org/2000/svg">
<path fill-rule="evenodd" clip-rule="evenodd" d="M20.2667 24.9644V10.6333H17.7333V24.9467L12.8592 19.2821L10.9389 20.9288L19.0025 30.3072L27.0965 20.9339L25.1763 19.2796L20.2667 24.9644ZM19 0.5C8.50693 0.5 0 9.00693 0 19.5C0 29.9931 8.50693 38.5 19 38.5C29.4931 38.5 38 29.9931 38 19.5C38 9.00693 29.4931 0.5 19 0.5ZM19 35.9667C9.92053 35.9667 2.53333 28.5795 2.53333 19.5C2.53333 10.4205 9.92053 3.03333 19 3.03333C28.0795 3.03333 35.4667 10.4205 35.4667 19.5C35.4667 28.5795 28.0795 35.9667 19 35.9667Z" fill="#BBBBBB"/>
</svg>
