<svg width="44" height="39" viewBox="0 0 44 39" fill="none" xmlns="http://www.w3.org/2000/svg">
<path d="M29.8785 32.3369C27.0529 34.4107 24.2237 35.9241 22 36.6631M22 36.6631C15 34.3369 2 24.3369 2 13.3369M22 36.6631C19.7763 35.9241 16.9471 34.4107 14.1215 32.3369M22 36.6631C29 34.3369 42 24.3369 42 13.3369M2 13.3369C2 7.26181 6.92487 2.33691 13 2.33691C16.7203 2.33691 20.0093 4.18381 22 7.01071C23.9907 4.18381 27.2797 2.33691 31 2.33691C37.0751 2.33691 42 7.26181 42 13.3369M2 13.3369C2 15.0834 2.3277 16.8046 2.9071 18.474M42 13.3369C42 15.0834 41.6723 16.8046 41.0929 18.474" stroke="#BBBBBB" stroke-width="3" stroke-linecap="round" stroke-linejoin="round"/>
</svg>
