<svg width="25" height="25" viewBox="0 0 25 25" fill="none" xmlns="http://www.w3.org/2000/svg">
<path d="M12.5 0.625C5.94534 0.625 0.625 5.94534 0.625 12.5C0.625 19.0688 5.94534 24.375 12.5 24.375C19.0688 24.375 24.375 19.0547 24.375 12.5C24.375 5.94534 19.0688 0.625 12.5 0.625ZM17.9338 17.7636C17.7352 18.1183 17.2812 18.2176 16.9407 18.0048C14.1316 16.3023 10.6272 15.9192 6.48447 16.8698C6.08722 16.9407 5.68996 16.6995 5.60484 16.3023C5.57646 15.905 5.81765 15.5078 6.17234 15.4226C10.7124 14.3869 14.6281 14.8268 17.7494 16.7421C18.1183 16.9549 18.2318 17.4089 18.0048 17.7636H17.9338ZM19.4235 14.5288C19.1398 14.9545 18.5723 15.0963 18.1467 14.841C14.9545 12.8547 10.0881 12.2872 6.31422 13.4506C5.86022 13.5924 5.32109 13.3087 5.17921 12.8405C5.03734 12.3723 5.32109 11.8474 5.83184 11.7055C10.1449 10.4286 15.5078 11.0671 19.1682 13.2661C19.5938 13.5499 19.7357 14.1174 19.4519 14.543L19.4235 14.5288ZM19.5654 11.1522C15.7348 8.88217 9.40711 8.66936 5.74671 9.77599C5.17921 9.96043 4.58333 9.63411 4.3989 9.03823C4.21446 8.47073 4.54077 7.83229 5.13665 7.64785C9.33617 6.37097 16.3165 6.62634 20.7146 9.23686C21.2395 9.54899 21.424 10.23 21.0977 10.7549C20.8139 11.2941 20.1045 11.4643 19.5938 11.1522H19.5654Z" fill="#0B7BFF"/>
</svg>
