<svg width="48" height="49" viewBox="0 0 48 49" fill="none" xmlns="http://www.w3.org/2000/svg">
<path d="M12 27.5C13.6569 27.5 15 26.1569 15 24.5C15 22.8431 13.6569 21.5 12 21.5C10.3431 21.5 9 22.8431 9 24.5C9 26.1569 10.3431 27.5 12 27.5Z" fill="#BBBBBB"/>
<path d="M24 27.5C25.6569 27.5 27 26.1569 27 24.5C27 22.8431 25.6569 21.5 24 21.5C22.3431 21.5 21 22.8431 21 24.5C21 26.1569 22.3431 27.5 24 27.5Z" fill="#BBBBBB"/>
<path d="M36 27.5C37.6569 27.5 39 26.1569 39 24.5C39 22.8431 37.6569 21.5 36 21.5C34.3431 21.5 33 22.8431 33 24.5C33 26.1569 34.3431 27.5 36 27.5Z" fill="#BBBBBB"/>
</svg>
