<svg width="18" height="18" viewBox="0 0 18 18" fill="none" xmlns="http://www.w3.org/2000/svg">
<path d="M9 2.25V15.75C6.375 15.75 4.42444 12.3147 4.42444 12.3147H2.25C1.83579 12.3147 1.5 11.9789 1.5 11.5647V6.37905C1.5 5.96482 1.83579 5.62905 2.25 5.62905H4.42444C4.42444 5.62905 6.375 2.25 9 2.25Z" stroke="#BABABA" stroke-width="1.125" stroke-linejoin="round"/>
<path d="M12 5.625C12.2337 5.83369 12.4455 6.06739 12.6315 6.32205C13.177 7.0689 13.5 7.99586 13.5 9C13.5 9.99544 13.1826 10.915 12.6457 11.6585C12.4563 11.9207 12.2397 12.161 12 12.375" stroke="#BABABA" stroke-width="1.125" stroke-linecap="round" stroke-linejoin="round"/>
<path d="M12.8385 15.4447C15.0314 14.1358 16.5 11.7394 16.5 9.00004C16.5 6.30323 15.0767 3.93885 12.9402 2.61719" stroke="#BABABA" stroke-width="1.125" stroke-linecap="round"/>
</svg>
