<svg width="14" height="15" viewBox="0 0 14 15" fill="none" xmlns="http://www.w3.org/2000/svg">
<path fill-rule="evenodd" clip-rule="evenodd" d="M7.09333 9.41264V4.39676H6.20667V9.40643L4.50072 7.42384L3.82863 8.00018L6.65089 11.2826L9.48379 8.00195L8.81169 7.42296L7.09333 9.41264ZM6.65 0.850098C2.97743 0.850098 0 3.82752 0 7.5001C0 11.1727 2.97743 14.1501 6.65 14.1501C10.3226 14.1501 13.3 11.1727 13.3 7.5001C13.3 3.82752 10.3226 0.850098 6.65 0.850098ZM6.65 13.2634C3.47219 13.2634 0.886667 10.6779 0.886667 7.5001C0.886667 4.32228 3.47219 1.73676 6.65 1.73676C9.82781 1.73676 12.4133 4.32228 12.4133 7.5001C12.4133 10.6779 9.82781 13.2634 6.65 13.2634Z" fill="#3693FF"/>
</svg>
