<svg width="18" height="18" viewBox="0 0 18 18" fill="none" xmlns="http://www.w3.org/2000/svg">
<path d="M14.25 0.75H3.75C3.33579 0.75 3 1.08579 3 1.5V16.5C3 16.9142 3.33579 17.25 3.75 17.25H14.25C14.6642 17.25 15 16.9142 15 16.5V1.5C15 1.08579 14.6642 0.75 14.25 0.75Z" stroke="#BABABA" stroke-width="1.125" stroke-linejoin="round"/>
<path d="M9 14.25C10.2426 14.25 11.25 13.2426 11.25 12C11.25 10.7574 10.2426 9.75 9 9.75C7.75736 9.75 6.75 10.7574 6.75 12C6.75 13.2426 7.75736 14.25 9 14.25Z" stroke="#BABABA" stroke-width="1.125" stroke-linejoin="round"/>
<path d="M9 6.75C9.82841 6.75 10.5 6.07841 10.5 5.25C10.5 4.42159 9.82841 3.75 9 3.75C8.17159 3.75 7.5 4.42159 7.5 5.25C7.5 6.07841 8.17159 6.75 9 6.75Z" stroke="#BABABA" stroke-width="1.125" stroke-linejoin="round"/>
</svg>
